<svg width="300" height="300" viewBox="0 0 300 300" xmlns="http://www.w3.org/2000/svg">
  <defs>
    <radialGradient id="kiwiGradient" cx="0.5" cy="0.5" r="0.8">
      <stop offset="0%" style="stop-color:#8bc34a;stop-opacity:1" />
      <stop offset="100%" style="stop-color:#689f38;stop-opacity:1" />
    </radialGradient>
    <radialGradient id="kiwiInsideGradient" cx="0.5" cy="0.5" r="0.8">
      <stop offset="0%" style="stop-color:#c8e6c9;stop-opacity:1" />
      <stop offset="100%" style="stop-color:#a5d6a7;stop-opacity:1" />
    </radialGradient>
  </defs>
  
  <!-- Whole Kiwi -->
  <ellipse cx="120" cy="150" rx="45" ry="55" fill="url(#kiwiGradient)" />
  
  <!-- Kiwi Texture (fuzzy skin) -->
  <circle cx="100" cy="130" r="2" fill="#689f38" opacity="0.8" />
  <circle cx="110" cy="140" r="1.5" fill="#689f38" opacity="0.8" />
  <circle cx="130" cy="125" r="1" fill="#689f38" opacity="0.8" />
  <circle cx="105" cy="165" r="1.5" fill="#689f38" opacity="0.8" />
  <circle cx="125" cy="175" r="1" fill="#689f38" opacity="0.8" />
  <circle cx="140" cy="160" r="2" fill="#689f38" opacity="0.8" />
  
  <!-- Kiwi Half (cut) -->
  <circle cx="200" cy="150" r="50" fill="url(#kiwiInsideGradient)" />
  
  <!-- Kiwi Center (white) -->
  <circle cx="200" cy="150" r="8" fill="#fff" />
  
  <!-- Kiwi Seeds -->
  <circle cx="195" cy="145" r="1" fill="#333" />
  <circle cx="205" cy="145" r="1" fill="#333" />
  <circle cx="200" cy="140" r="1" fill="#333" />
  <circle cx="200" cy="160" r="1" fill="#333" />
  <circle cx="195" cy="155" r="1" fill="#333" />
  <circle cx="205" cy="155" r="1" fill="#333" />
  <circle cx="190" cy="150" r="1" fill="#333" />
  <circle cx="210" cy="150" r="1" fill="#333" />
  
  <!-- Kiwi Segments -->
  <path d="M200 150 L185 135" stroke="#4caf50" stroke-width="1" opacity="0.6" />
  <path d="M200 150 L215 135" stroke="#4caf50" stroke-width="1" opacity="0.6" />
  <path d="M200 150 L185 165" stroke="#4caf50" stroke-width="1" opacity="0.6" />
  <path d="M200 150 L215 165" stroke="#4caf50" stroke-width="1" opacity="0.6" />
  <path d="M200 150 L200 120" stroke="#4caf50" stroke-width="1" opacity="0.6" />
  <path d="M200 150 L200 180" stroke="#4caf50" stroke-width="1" opacity="0.6" />
  <path d="M200 150 L170 150" stroke="#4caf50" stroke-width="1" opacity="0.6" />
  <path d="M200 150 L230 150" stroke="#4caf50" stroke-width="1" opacity="0.6" />
  
  <!-- Shadow -->
  <ellipse cx="160" cy="220" rx="60" ry="15" fill="#000" opacity="0.2" />
  
  <!-- Text -->
  <text x="160" y="250" text-anchor="middle" fill="#333" font-family="Arial" font-size="16" font-weight="bold">كيوي أخضر</text>
</svg>