<svg width="300" height="300" viewBox="0 0 300 300" xmlns="http://www.w3.org/2000/svg">
  <defs>
    <radialGradient id="strawberryGradient" cx="0.3" cy="0.3" r="0.8">
      <stop offset="0%" style="stop-color:#e91e63;stop-opacity:1" />
      <stop offset="100%" style="stop-color:#c2185b;stop-opacity:1" />
    </radialGradient>
  </defs>
  
  <!-- Strawberry Body -->
  <path d="M150 90 Q120 110 115 150 Q115 180 130 200 Q150 210 170 200 Q185 180 185 150 Q180 110 150 90" 
        fill="url(#strawberryGradient)" />
  
  <!-- Strawberry Seeds -->
  <ellipse cx="130" cy="130" rx="2" ry="3" fill="#ffeb3b" />
  <ellipse cx="145" cy="125" rx="2" ry="3" fill="#ffeb3b" />
  <ellipse cx="160" cy="130" rx="2" ry="3" fill="#ffeb3b" />
  <ellipse cx="170" cy="145" rx="2" ry="3" fill="#ffeb3b" />
  <ellipse cx="125" cy="150" rx="2" ry="3" fill="#ffeb3b" />
  <ellipse cx="140" cy="155" rx="2" ry="3" fill="#ffeb3b" />
  <ellipse cx="160" cy="160" rx="2" ry="3" fill="#ffeb3b" />
  <ellipse cx="175" cy="165" rx="2" ry="3" fill="#ffeb3b" />
  <ellipse cx="135" cy="175" rx="2" ry="3" fill="#ffeb3b" />
  <ellipse cx="150" cy="180" rx="2" ry="3" fill="#ffeb3b" />
  <ellipse cx="165" cy="185" rx="2" ry="3" fill="#ffeb3b" />
  
  <!-- Strawberry Leaves -->
  <path d="M130 85 Q135 75 140 85" fill="#4caf50" />
  <path d="M140 80 Q145 70 150 80" fill="#4caf50" />
  <path d="M150 80 Q155 70 160 80" fill="#4caf50" />
  <path d="M160 85 Q165 75 170 85" fill="#4caf50" />
  
  <!-- Strawberry Stem -->
  <rect x="148" y="75" width="4" height="10" fill="#4caf50" />
  
  <!-- Strawberry Highlight -->
  <ellipse cx="135" cy="110" rx="8" ry="12" fill="#f48fb1" opacity="0.6" />
  
  <!-- Shadow -->
  <ellipse cx="150" cy="220" rx="40" ry="10" fill="#000" opacity="0.2" />
  
  <!-- Text -->
  <text x="150" y="250" text-anchor="middle" fill="#333" font-family="Arial" font-size="16" font-weight="bold">فراولة طازجة</text>
</svg>